<?xml version="1.0" encoding="utf-8"?>
<!-- Generator: Adobe Illustrator 24.1.0, SVG Export Plug-In . SVG Version: 6.00 Build 0)  -->
<svg version="1.1" id="Layer_1" xmlns="http://www.w3.org/2000/svg" xmlns:xlink="http://www.w3.org/1999/xlink" x="0px" y="0px"
	 width="2440" height="901" viewBox="0 0 165.1680145 61.0065308" enable-background="new 0 0 165.1680145 61.0065308" xml:space="preserve">
<g>
	<polygon fill="#5B6771" points="4.8249016,53.4173584 2.2598991,56.8493652 1.2178993,53.4173584 0.3049011,53.4173584 
		1.6449013,57.7503662 0.9459,60.9013672 1.775898,60.9013672 2.4738998,57.7503662 5.7369003,53.4173584 	"/>
	<path fill="#5B6771" d="M6.1914978,61.0056152c-1.4720001,0-1.9319992-1.2439575-1.586998-2.7990112
		c0.3449974-1.5549927,1.3569984-2.7979736,2.8289986-2.7979736s1.9319992,1.242981,1.5859985,2.7979736
		C8.6744995,59.7616577,7.6634979,61.0056152,6.1914978,61.0056152 M7.2905006,56.0505981
		c-0.8910027,0-1.632,0.7680054-1.9400024,2.1560059c-0.3079987,1.3890381,0.0919991,2.1560059,0.9830017,2.1560059
		c0.8919983,0,1.632-0.7669678,1.9399986-2.1560059C8.5814972,56.8186035,8.1824989,56.0505981,7.2905006,56.0505981"/>
	<path fill="#5B6771" d="M12.642601,60.9018555l0.1609993-0.7259521h-0.0209999
		c-0.5300026,0.4769897-1.1680031,0.8299561-1.7800026,0.8299561c-0.7980003,0-1.4629974-0.414978-1.204998-1.5759888
		l0.8689995-3.9179688h0.7470016l-0.8660011,3.8969727c-0.1580009,0.7160034,0.1310005,0.9540405,0.6699982,0.9540405
		c0.5600014,0,1.3040009-0.4560547,1.7270012-0.8190308l0.894001-4.0319824h0.7469978l-1.1969986,5.3899536H12.642601z"/>
	<path fill="#5B6771" d="M16.1833992,55.5119019h0.7469978l-0.2369995,1.0680542h0.0200005
		c0.5779991-0.7360229,1.1160011-1.151001,2.007-1.151001l-0.1650009,0.7469482
		c-0.9379997,0.0200195-1.5610008,0.632019-2.1590004,1.7410278l-0.6619987,2.9849854h-0.7470016L16.1833992,55.5119019z"/>
	<path fill="#5B6771" d="M21.3953972,60.9022827l1.6599998-7.4849854h2.612999c1.5960007,0,2.0880013,0.9129639,1.8260002,2.0949707
		c-0.2759972,1.243042-1.3159981,2.052002-3.2029991,2.052002h-1.3260002l-0.7410011,3.3380127H21.3953972z M23.1213989,56.8592529
		h1.4099998c1.3789978,0,1.9409981-0.4769897,2.1379967-1.367981c0.1980019-0.8919678-0.2249985-1.367981-1.3449974-1.367981
		h-1.5950012L23.1213989,56.8592529z"/>
	<path fill="#5B6771" d="M29.2111969,61.0056152c-1.4719963,0-1.9319954-1.2439575-1.5869942-2.7990112
		c0.3449974-1.5549927,1.3569984-2.7979736,2.8289986-2.7979736s1.9319992,1.242981,1.5859985,2.7979736
		C31.6951981,59.7616577,30.683197,61.0056152,29.2111969,61.0056152 M30.3102036,56.0505981
		c-0.8910065,0-1.6320038,0.7680054-1.9400024,2.1560059c-0.3079987,1.3890381,0.0919952,2.1560059,0.9830017,2.1560059
		c0.8919983,0,1.6319962-0.7669678,1.9399948-2.1560059C31.6011963,56.8186035,31.2022018,56.0505981,30.3102036,56.0505981"/>
	<polygon fill="#5B6771" points="33.1373978,55.5119019 33.8943939,55.5119019 34.0623932,59.657959 34.0833969,59.657959 
		36.0603943,55.5119019 36.8173904,55.5119019 36.9703903,59.6789551 36.991394,59.6789551 38.9633942,55.5119019 
		39.7193909,55.5119019 37.0833969,60.9019165 36.3263931,60.9019165 36.1723938,56.7349243 36.1513977,56.7349243 
		34.1593933,60.9019165 33.4033966,60.9019165 	"/>
	<path fill="#5B6771" d="M43.725502,59.7511597c-0.4880066,0.6119995-1.128006,1.2550049-2.3510056,1.2550049
		c-1.2019958,0-2.1589966-0.8300171-1.7220001-2.7990112c0.3860016-1.7420044,1.4920044-2.7990112,2.8190002-2.7990112
		c1.1190033,0,1.8909988,0.7249756,1.5090027,2.4459839l-0.1100006,0.4979858h-3.5039978
		c-0.262001,1.1820068,0.2589951,2.0110474,1.1500015,2.0110474c0.6639938,0,1.2599945-0.3530273,1.6949997-0.9120483
		L43.725502,59.7511597z M43.2665024,57.7091064c0.220993-0.9949951-0.1090012-1.6589966-0.9170074-1.6589966
		c-0.9019928,0-1.5369949,0.6640015-1.8189926,1.6589966H43.2665024z"/>
	<path fill="#5B6771" d="M45.694397,55.5119019h0.746994l-0.2369995,1.0680542h0.0200043
		c0.5779953-0.7360229,1.1159973-1.151001,2.0069962-1.151001l-0.1650009,0.7469482
		c-0.9379959,0.0200195-1.560997,0.632019-2.1589966,1.7410278l-0.6620026,2.9849854h-0.7470016L45.694397,55.5119019z"/>
	<polygon fill="#5B6771" points="48.3178024,59.7617798 48.0647964,60.9017944 47.0487976,60.9017944 47.301796,59.7617798 	"/>
	<path fill="#5B6771" d="M57.5452957,53.3145142c1.8349991,0,2.6240005,1.3469849,2.0699997,3.8449707
		c-0.5540009,2.4990234-1.9420013,3.8470459-3.7770004,3.8470459c-1.8339996,0-2.6240005-1.3480225-2.0690002-3.8470459
		C54.3232956,54.661499,55.7112961,53.3145142,57.5452957,53.3145142 M55.9953003,60.3004761
		c1.3169937,0,2.3189926-1.0159912,2.7909927-3.1409912c0.4710007-2.125-0.0809937-3.1409912-1.3969955-3.1409912
		c-1.3170013,0-2.3199997,1.0159912-2.7910004,3.1409912C54.126297,59.2844849,54.678299,60.3004761,55.9953003,60.3004761"/>
	<path fill="#5B6771" d="M63.1617966,60.9018555l0.1609955-0.7259521H63.301796
		c-0.5310059,0.4769897-1.1680069,0.8299561-1.7800064,0.8299561c-0.7979965,0-1.4629974-0.414978-1.2049942-1.5759888
		l0.8689957-3.9179688h0.7460022l-0.8649979,3.8969727c-0.1580048,0.7160034,0.1309967,0.9540405,0.6699982,0.9540405
		c0.5599976,0,1.3040009-0.4560547,1.7259979-0.8190308l0.8950043-4.0319824h0.7459946l-1.1959991,5.3899536H63.1617966z"/>
	<path fill="#5B6771" d="M66.7025986,55.5119019h0.746994l-0.237999,1.0680542h0.0210037
		c0.5779953-0.7360229,1.1159973-1.151001,2.0069962-1.151001l-0.1650009,0.7469482
		c-0.9379959,0.0200195-1.560997,0.632019-2.1589966,1.7410278l-0.663002,2.9849854h-0.7460022L66.7025986,55.5119019z"/>
	<path fill="#5B6771" d="M71.9144974,60.9022827l1.6610031-7.4849854H76.1875c1.5960007,0,2.0879974,0.9129639,1.8259964,2.0949707
		c-0.2759933,1.243042-1.3159943,2.052002-3.2029953,2.052002h-1.326004l-0.7399979,3.3380127H71.9144974z M73.6405029,56.8592529
		h1.409996c1.3789978,0,1.9410019-0.4769897,2.1389999-1.367981c0.197998-0.8919678-0.2249985-1.367981-1.3460007-1.367981
		H74.248497L73.6405029,56.8592529z"/>
	<path fill="#5B6771" d="M78.8758011,55.5119019h0.746994l-0.2369995,1.0680542h0.0210037
		c0.5769958-0.7360229,1.1149979-1.151001,2.0069962-1.151001l-0.1660004,0.7469482
		c-0.9369965,0.0200195-1.560997,0.632019-2.1589966,1.7410278l-0.663002,2.9849854h-0.7460022L78.8758011,55.5119019z"/>
	<path fill="#5B6771" d="M82.9234924,61.0056152c-1.4720001,0-1.9309998-1.2439575-1.5859985-2.7990112
		c0.3450012-1.5549927,1.3570023-2.7979736,2.8280029-2.7979736c1.4720001,0,1.9319992,1.242981,1.586998,2.7979736
		C85.4074936,59.7616577,84.3954926,61.0056152,82.9234924,61.0056152 M84.0234985,56.0505981
		c-0.8920059,0-1.6320038,0.7680054-1.9400024,2.1560059c-0.3079987,1.3890381,0.0919952,2.1560059,0.9830017,2.1560059
		c0.8919983,0,1.6319962-0.7669678,1.9399948-2.1560059C85.3144913,56.8186035,84.9144974,56.0505981,84.0234985,56.0505981"/>
	<path fill="#5B6771" d="M86.3386993,60.9018555l1.1959991-5.3899536h0.7459946l-0.1579971,0.7149658l0.0500031-0.0409546
		c0.5690002-0.5080566,1.2199936-0.7780151,1.737999-0.7780151c0.6949997,0,1.1029968,0.3529663,1.1899948,0.8499756
		c0.590004-0.5079956,1.2660065-0.8499756,1.8990021-0.8499756c0.7149963,0,1.4160004,0.3009644,1.1190033,1.6380005
		l-0.8560028,3.855957h-0.7460022l0.8549957-3.855957c0.1609955-0.7260132-0.1419983-0.9949951-0.6179962-0.9949951
		c-0.6640015,0-1.1959991,0.4359741-1.6869965,0.8289795l-0.8929977,4.0219727h-0.7460022l0.8549957-3.855957
		c0.1610031-0.7260132-0.1409988-0.9949951-0.6189957-0.9949951c-0.663002,0-1.1940002,0.4359741-1.6870041,0.8289795
		l-0.8909988,4.0219727H86.3386993z"/>
	<path fill="#5B6771" d="M96.338089,55.5120239h0.7460022l-1.1959991,5.3899536h-0.7460022L96.338089,55.5120239z
		 M97.5720978,53.3139648l-0.1980133,0.8920288h-0.7459869l0.196991-0.8920288H97.5720978z"/>
	<path fill="#5B6771" d="M98.0485992,59.5335693c0.2399902,0.5080566,0.6859894,0.8290405,1.3599854,0.8290405
		c0.8080139,0,1.2580109-0.4349976,1.3590088-0.8909912c0.3040009-1.368042-3.048996-0.6430054-2.5509949-2.6119995
		c0.2389984-0.934021,1.0709991-1.4620361,2.1049957-1.4510498c0.7030029,0.0100098,1.3950043,0.394043,1.6360016,0.9430542
		l-0.6190033,0.4559937c-0.3029938-0.5079956-0.6419983-0.757019-1.2210083-0.757019
		c-0.6319885,0-1.0469971,0.3220215-1.1519928,0.7979736c-0.2590027,1.1720581,3.0039978,0.5700073,2.5570068,2.5810547
		c-0.2320099,1.0469971-1.2610016,1.5759888-2.2360077,1.5759888c-0.8390045,0-1.5780029-0.3630371-1.927002-1.026001
		L98.0485992,59.5335693z"/>
	<path fill="#5B6771" d="M106.5431061,59.7511597c-0.4890137,0.6119995-1.1290131,1.2550049-2.352005,1.2550049
		c-1.2019958,0-2.1589966-0.8300171-1.7220001-2.7990112c0.3869934-1.7420044,1.4929962-2.7990112,2.8190002-2.7990112
		c1.1199951,0,1.8919983,0.7249756,1.5099945,2.4459839l-0.1109924,0.4979858h-3.503006
		c-0.2619934,1.1820068,0.2579956,2.0110474,1.1500092,2.0110474c0.6629944,0,1.2599945-0.3530273,1.6949921-0.9120483
		L106.5431061,59.7511597z M106.0841064,57.7091064c0.220993-0.9949951-0.1090088-1.6589966-0.9180145-1.6589966
		c-0.9009857,0-1.5359955,0.6640015-1.8190002,1.6589966H106.0841064z"/>
	<polygon fill="#5B6771" points="108.5115051,59.7617798 108.2584991,60.9017944 107.2424927,60.9017944 107.4954987,59.7617798 	
		"/>
	<path fill="#5B6771" d="M21.4248009,35.7047119c-2.1049995,6.7360229-6.3560028,9.8720093-13.0620003,9.8720093
		c-3.3300018,0-5.6850014-0.8399658-7.0009995-2.5C-0.1292,41.1957397-0.3972015,38.1557617,0.5648003,34.041748
		l2.2929993-9.8029785c1.8670006-7.9810181,6.3160019-11.8600464,13.6020012-11.8600464
		c3.3289986,0,5.6839981,0.842041,7.0009995,2.5020142c1.4910011,1.8800049,1.7589989,4.9199829,0.7970009,9.0339966
		l-1.1340027,4.992981c-0.1639977,0.7400513-0.8769989,0.6630249-0.8769989,0.6630249H8.2557983
		c-0.5569992,0-0.7799988,0.0250244-0.9039993,0.5570068l-1.1279984,4.8309937
		c-0.5559998,2.375-0.4160004,4.0460205,0.4259987,5.1090088c0.644001,0.8109741,1.6689987,1.2229614,3.0480003,1.2229614
		c3.0089989,0,5.0180016-1.9459839,5.9729996-5.7839966c0.132-0.4319458,0.5470009-0.4199829,0.5470009-0.4199829h4.7680016
		C20.9858017,35.086731,21.6598015,35.041748,21.4248009,35.7047119 M15.1248016,16.6657104
		c-3.0670013,0-5.0950012,2.0220337-6.0270004,6.0080566l-0.321003,1.492981
		c-0.0589981,0.2520142-0.079998,0.5460205,0.0279999,0.7810059c0.1500015,0.3289795,0.3800011,0.3359985,0.8490028,0.3359985
		h7.6870003c0.5579987,0,0.7389984-0.0780029,0.8639984-0.6099854l0.3930016-1.6760254
		c0.5559998-2.375,0.4169998-4.0469971-0.4250031-5.1090088C17.528801,17.0777588,16.5028,16.6657104,15.1248016,16.6657104"/>
	<path fill="#5B6771" d="M47.8470993,12.847168c-0.2520065,1.0780029-0.8710022,3.7230225-1.1170044,4.7740479
		c-0.0559998,0.2399902-0.2959976,0.3899536-0.5360031,0.3319702c-0.984993-0.2379761-2.0319977-0.4190063-3.5939941-0.4190063
		c-2.6360016,0-5.840004,1.5700073-6.6470032,5.0159912l-5.159996,22.0610352
		c-0.0470047,0.2019653-0.2280045,0.3460083-0.4360046,0.3460083H25.285099c-0.2280006,0-0.3959999-0.2130127-0.3440018-0.4349976
		l7.291996-31.177002c0.0480042-0.2030029,0.2280045-0.3460083,0.4360046-0.3460083l4.4599991-0.0029907
		c0.4229965,0,0.6719971,0.0739746,0.5690002,0.4840088l-0.1050034,0.7379761
		c-0.1269989,0.7379761,0.3899994,0.7799683,1.0870056,0.2639771c1.6639938-1.230957,4.548996-2.7669678,8.7979965-2.1779785
		C47.7360992,12.34021,47.9060974,12.5932007,47.8470993,12.847168"/>
	<path fill="#5B6771" d="M66.9423981,33.7240601c0.2049942,0,0.3579941,0.1970215,0.3079987,0.3960571
		c-1.9280014,7.7149658-6.3479996,11.4569702-13.5050049,11.4569702c-3.3289948,0-5.6839981-0.8410034-7.0009995-2.5009766
		c-1.4909973-1.8810425-1.7589951-4.9200439-0.7959976-9.0350342l2.2929993-9.802002
		c1.8660049-7.980957,6.3160019-11.8599854,13.6019974-11.8599854c3.2770004,0,5.6090012,0.8109741,6.9309998,2.4130249
		c1.3610001,1.6499634,1.7480011,4.2459717,1.1529999,7.7209473c-0.0479965,0.2790527-0.2910004,0.4830322-0.572998,0.4820557
		c-1.1289978,0-3.9160004-0.0020142-4.9639969-0.0040283c-0.2109985,0-0.3619995-0.1959839-0.3190002-0.4019775
		c0.4469986-2.1680298,0.276001-3.7020264-0.5149994-4.7000122c-0.6440048-0.8120117-1.6700058-1.2230225-3.0480042-1.2230225
		c-3.0670013,0-5.0950012,2.0209961-6.0279999,6.0079956l-2.8740005,12.2839966
		c-0.5550003,2.375-0.4160004,4.0469971,0.427002,5.1090088c0.6439972,0.8120117,1.6689987,1.2230225,3.0469971,1.2230225
		c3.0680008,0,5.0960007-2.0209961,6.0279999-6.0079956l0.2940063-1.2560425
		c0.0410004-0.177002,0.1989975-0.302002,0.3809967-0.302002H66.9423981z"/>
	<path fill="#5B6771" d="M79.6317978,45.5767212c-3.3300018,0-5.6850052-0.8399658-7.0009995-2.5
		c-1.4910049-1.8809814-1.7590027-4.9209595-0.7970047-9.0349731l2.2929993-9.8029785
		c1.8670044-7.9810181,6.3160019-11.8600464,13.602005-11.8600464c3.3299942,0,5.6839981,0.842041,7.0009995,2.5020142
		c1.4919891,1.8800049,1.7589874,4.9199829,0.7969971,9.0339966l-2.2929993,9.8029785
		C91.3667984,41.6977539,86.9177933,45.5767212,79.6317978,45.5767212 M86.3937988,16.6657104
		c-3.0670013,0-5.0950012,2.0220337-6.0270004,6.0080566l-2.8740005,12.2849731
		c-0.5550003,2.375-0.4160004,4.0460205,0.4259949,5.1090088c0.6440048,0.8109741,1.6689987,1.2229614,3.0470047,1.2229614
		c3.0680008,0,5.0960007-2.0219727,6.0279999-6.0089722l2.8730011-12.2839966
		c0.5569992-2.375,0.4169998-4.0469971-0.4250031-5.1090088C88.7977982,17.0777588,87.7717972,16.6657104,86.3937988,16.6657104"/>
	<path fill="#5B6771" d="M103.6430054,17.7796021L98.6929932,38.942627
		c-0.4929962,2.1090088-0.3109894,3.7219849,0.5410004,4.7969971c0.9670105,1.2189941,2.8480072,1.8370361,5.5879974,1.8370361
		c1.4220123,0,2.2280121-0.0780029,2.9309998-0.2109985c0.1420135-0.026001,0.253006-0.1360474,0.2860107-0.276001
		l0.9649963-4.1290283c0.0350037-0.1480103-0.0780029-0.289978-0.2299957-0.289978h-1.2279968
		c-0.9960022,0-2.0230103-0.1110229-2.4850006-0.6920166c-0.503006-0.6350098-0.3300018-1.7369995-0.0559998-2.9110107
		l4.5269928-19.3499756c0.0919952-0.3690186,0.2980042-0.4310303,0.6470032-0.4310303h3.9769897
		c0.2260132,0,0.4220123-0.1569824,0.4740143-0.3770142l0.8209991-3.5099487
		c0.0479889-0.2050171-0.1070099-0.401001-0.3170013-0.401001h-4.0299988
		c-0.5340118-0.0310059-0.3390045-0.5120239-0.3390045-0.5120239l1.845993-7.934021
		c0.1160126-0.5669556-0.3759918-0.5489502-0.3759918-0.5489502h-4.9440002
		c-0.401001,0.0169678-0.4949951,0.3299561-0.4949951,0.3299561l-1.9410095,8.2560425
		c-0.0919952,0.3079834-0.1329956,0.4089966-0.5029907,0.4089966h-3.8740082c0,0-0.3289948,0-0.5139923,0.4530029
		l-0.802002,3.3699951c-0.1030121,0.3909912,0.348999,0.4649658,0.348999,0.4649658h3.7009888
		C103.2119904,17.2866211,103.7769928,17.2556152,103.6430054,17.7796021"/>
	<path fill="#00ABC7" d="M153.9228973,29.7390137l-14.8600006,17.2329712
		c-0.1170044,0.1350098-0.3320007,0.0339966-0.298996-0.1389771l1.4769897-7.7139893
		c0.0570068-0.3030396-0.220993-0.5550537-0.5169983-0.467041l-3.4219971,1.0010376
		c-0.3150024,0.09198-0.552002,0.3579712-0.6060028,0.6799927l-3.3190002,19.756958
		c-0.0659943,0.5140381,0.3639984,0.717041,0.7120056,0.2950439l26.4129944-30.9700317
		c0.2020111-0.2369995,0.2220001-0.5759888,0.0540009-0.8309937c-1.6389923-2.4970093-4.04599-3.1729736-4.04599-3.1729736
		c-4.977005-1.9570313-10.7750092,1.506958-14.7320099,3.5999756c-10.125,5.3560181-16.1929932,0.3950195-17.4279938-0.8740234
		c-0.1309967-0.1359863-0.3130035-0.2099609-0.5039978-0.2099609l-4.3110046-0.0029907
		c-0.2290039,0-0.3650055,0.2600098-0.2299957,0.4400024c0.9440002,1.2649536,3.8129883,4.8219604,7.8369904,6.1469727
		c3.5680084,1.1749878,9.2700043,2.1669922,16.6809998-1.7860107l0.0960083-0.0549927
		c3.9850006-2.2730103,8.2339935-4.2160034,10.8560028-3.3280029
		C153.7749023,29.34198,154.1219025,29.4609985,153.9228973,29.7390137 M141.8009033,15.0979614
		c-6.2410126,3.6980591-10.4480133,4.1200562-11.9890137,3.2450562c-0.2070007-0.1170044-0.3109894-0.3560181-0.2609863-0.5930176
		l2.7879944-13.2720337c0.0370026-0.1749878,0.1929932-0.302002,0.3710022-0.302002l8.3399963-0.0059814
		c0.1389923,0,0.2420044,0.1279907,0.2100067,0.2650146l-1.5690002,6.8909912
		c-0.0490112,0.2119751,0.1619873,0.3829956,0.3609924,0.2949829l3.5850067-1.5969849
		c0.2419891-0.1049805,0.3479919-0.2630005,0.4219971-0.5269775l1.9869995-8.7800293
		C146.1308899,0.3469849,145.855896,0,145.4768982,0l-16.0820007,0.0130005c-0.2900085,0-0.5429993,0.2059937-0.6029968,0.4909668
		l-3.9670105,18.8569946c-0.048996,0.2320557,0.006012,0.4710083,0.1490021,0.6560059l0.4240112,0.5469971
		c0.3169861,0.4070435,2.2269897,2.3980103,6.3609924,2.3970337c2.7940063,0,6.1349945-0.934021,12.6179962-4.3049927
		c0.1009979-0.0540161,10.0400085-6.0170288,15.6959991,0.6350098c0.1269989,0.1489868,0.3090057,0.2379761,0.5070038,0.2379761
		l4.3079987-0.0020142c0.2160034,0,0.3529968-0.2420044,0.2389984-0.4219971
		C157.9218903,7.7399902,147.0898895,11.9649658,141.8009033,15.0979614"/>
</g>
</svg>
